<?xml version="1.0" encoding="UTF-8" standalone="no"?>
<svg
   xmlns:dc="http://purl.org/dc/elements/1.1/"
   xmlns:cc="http://creativecommons.org/ns#"
   xmlns:rdf="http://www.w3.org/1999/02/22-rdf-syntax-ns#"
   xmlns:svg="http://www.w3.org/2000/svg"
   xmlns="http://www.w3.org/2000/svg"
   xmlns:sodipodi="http://sodipodi.sourceforge.net/DTD/sodipodi-0.dtd"
   xmlns:inkscape="http://www.inkscape.org/namespaces/inkscape"
   version="1.1"
   width="50"
   height="48.750423"
   viewBox="0 0 49.999607 48.75004"
   enable-background="new 0 0 76.01 76.01"
   xml:space="preserve"
   id="svg2"
   inkscape:version="0.91 r13725"
   sodipodi:docname="appbar.calendar.month.svg"><metadata
     id="metadata10"><rdf:RDF><cc:Work
         rdf:about=""><dc:format>image/svg+xml</dc:format><dc:type
           rdf:resource="http://purl.org/dc/dcmitype/StillImage" /><dc:title></dc:title></cc:Work></rdf:RDF></metadata><defs
     id="defs8" /><sodipodi:namedview
     pagecolor="#ffffff"
     bordercolor="#666666"
     borderopacity="1"
     objecttolerance="10"
     gridtolerance="10"
     guidetolerance="10"
     inkscape:pageopacity="0"
     inkscape:pageshadow="2"
     inkscape:window-width="1024"
     inkscape:window-height="1217"
     id="namedview6"
     showgrid="false"
     fit-margin-top="0"
     fit-margin-left="0"
     fit-margin-right="0"
     fit-margin-bottom="0"
     inkscape:zoom="3.1048302"
     inkscape:cx="20.002657"
     inkscape:cy="19.003251"
     inkscape:window-x="-8"
     inkscape:window-y="-8"
     inkscape:window-maximized="1"
     inkscape:current-layer="svg2" /><path
     d="m 0,48.750041 0,-42.4998406 6.249951,0 0,-3.749945 C 6.250076,1.1194595 7.369285,2.5e-4 8.749956,2.5e-4 l 4.999886,0 c 1.380671,0 2.49988,1.1192095 2.500005,2.4997554 l 0,3.750195 17.499912,0 -1.25e-4,-3.750195 C 33.749634,1.1192095 34.868969,0 36.24964,0 l 5.00001,0 c 1.380671,0 2.500006,1.1192095 2.500006,2.5000054 l 0,3.750195 6.249951,0 0,42.4998406 -49.999607,0 z m 3.749945,-3.749945 42.499591,0 0,-28.749874 -42.499591,0 0,28.749874 z m 2.500006,-8.750082 7.499891,0 0,6.249951 -7.499891,0 0,-6.249951 z m 9.999896,0 7.499891,0 0,6.249951 -7.499891,0 0,-6.249951 z m 9.999896,0 7.499891,0 0,6.249951 -7.499891,0 0,-6.249951 z m 9.999897,0 7.499891,0 0,6.249951 -7.499891,0 0,-6.249951 z m -29.999689,-8.749956 7.499891,0 0,6.249951 -7.499891,0 0,-6.249951 z m 9.999896,0 7.499891,0 0,6.249951 -7.499891,0 0,-6.249951 z m 9.999896,0 7.499891,0 0,6.249951 -7.499891,0 0,-6.249951 z m 9.999897,0 7.499891,0 0,6.249951 -7.499891,0 0,-6.249951 z m -19.999793,-8.749706 7.499891,0 0,6.249951 -7.499891,0 0,-6.249951 z m 9.999896,0 7.499891,0 0,6.249951 -7.499891,0 0,-6.249951 z m 9.999897,0 7.499891,0 0,6.249951 -7.499891,0 0,-6.249951 z M 38.124488,2.5003804 c -1.035472,0 -1.874973,0.839501 -1.874973,1.874973 l 0,3.75007 c 0,1.035472 0.839501,1.8749726 1.874973,1.8749726 l 1.250065,0 c 1.035472,0 1.874972,-0.8395006 1.874972,-1.8749726 l 0,-3.75007 c 0,-1.035472 -0.8395,-1.874973 -1.874972,-1.874973 l -1.250065,0 z m -27.499559,0 c -1.035597,0 -1.875098,0.839501 -1.875098,1.874973 l 0,3.749945 c 0,1.035597 0.839501,1.8749726 1.875098,1.8749726 l 1.24994,0 c 1.035472,0 1.874973,-0.8393756 1.874973,-1.8749726 l 0,-3.749945 c 0,-1.035472 -0.839501,-1.874973 -1.874973,-1.874973 l -1.24994,0 z m 6.874858,26.2497426 0,3.749946 5.000011,0 0,-3.749946 -5.000011,0 z m -9.999896,0 0,3.749946 5.000011,0 0,-3.749946 -5.000011,0 z m 19.999918,0 0,3.749946 4.999885,0 0,-3.749946 -4.999885,0 z m 9.999896,-1.25e-4 0,3.750071 4.999886,0 0,-3.750071 -4.999886,0 z m -19.999918,-8.749831 0,3.749946 5.000011,0 0,-3.749946 -5.000011,0 z m 10.000022,0 0,3.749946 4.999885,0 0,-3.749946 -4.999885,0 z m 9.999896,0 0,3.749946 4.999886,0 0,-3.749946 -4.999886,0 z m 0,17.499788 0,3.749945 4.999886,0 0,-3.749945 -4.999886,0 z m -9.999896,0 0,3.749945 4.999885,0 0,-3.749945 -4.999885,0 z m -9.999897,0 0,3.749945 4.999886,0 0,-3.749945 -4.999886,0 z m -10.000021,0 0,3.749945 5.000011,0 0,-3.749945 -5.000011,0 z"
     id="path4"
     inkscape:connector-curvature="0"
     style="fill:#000000;fill-opacity:1;stroke-width:0.2;stroke-linejoin:round" /></svg>