<svg xmlns="http://www.w3.org/2000/svg" xmlns:xlink="http://www.w3.org/1999/xlink" version="1.1" id="Your_Icon" x="0px" y="0px" viewBox="0 0 100 100" enable-background="new 0 0 100 100" xml:space="preserve" height="100px" width="100px">
<path fill="#000000" d="M85.7,94H28.2c-7.1,0-12.9-5.8-12.9-12.9V20.9h8.6v60.2c0,2.4,1.9,4.3,4.3,4.3h49V29.5h8.6V94z"/>
<path fill="#000000" d="M81.4,33.8H28.2c-7.1,0-12.9-5.8-12.9-12.9h8.6c0,2.4,1.9,4.3,4.3,4.3h53.3V33.8z"/>
<path fill="#000000" d="M23.9,20.9h-8.6C15.3,13.8,21.1,8,28.2,8h57.6v8.6H28.2C25.8,16.6,23.9,18.5,23.9,20.9z"/>
<g>
	<path fill="#000000" d="M50.5,76.3c-2.4,0-4.3-1.9-4.3-4.3V46.9c0-2.4,1.9-4.3,4.3-4.3c2.4,0,4.3,1.9,4.3,4.3V72   C54.8,74.4,52.9,76.3,50.5,76.3z"/>
	<path fill="#000000" d="M58.7,60.2H42.3c-2.4,0-4.3-1.9-4.3-4.3c0-2.4,1.9-4.3,4.3-4.3h16.5c2.4,0,4.3,1.9,4.3,4.3   C63,58.3,61.1,60.2,58.7,60.2z"/>
</g>
<path fill="#000000" d="M85.7,33.8c-7.1,0-12.9-5.8-12.9-12.9S78.6,8,85.7,8v8.6c-2.4,0-4.3,1.9-4.3,4.3s1.9,4.3,4.3,4.3V33.8z"/>
</svg>