<?xml version="1.0" encoding="UTF-8" standalone="no"?>
<svg
   xmlns:dc="http://purl.org/dc/elements/1.1/"
   xmlns:cc="http://creativecommons.org/ns#"
   xmlns:rdf="http://www.w3.org/1999/02/22-rdf-syntax-ns#"
   xmlns:svg="http://www.w3.org/2000/svg"
   xmlns="http://www.w3.org/2000/svg"
   xmlns:sodipodi="http://sodipodi.sourceforge.net/DTD/sodipodi-0.dtd"
   xmlns:inkscape="http://www.inkscape.org/namespaces/inkscape"
   version="1.1"
   x="0px"
   y="0px"
   width="74.074074"
   height="74.074074"
   viewBox="5 -10 74.074074 100"
   enable-background="new 0 0 100 100"
   xml:space="preserve"
   id="svg2"
   inkscape:version="0.48.4 r9939"
   sodipodi:docname="minutes.svg"
   inkscape:export-filename="D:\Work\Projects\UGCCCalendar\ugcc-calendar-ios\Calendar UGCC\Calendar UGCC\Resources\Images\minutes.png"
   inkscape:export-xdpi="30.379999"
   inkscape:export-ydpi="30.379999"><metadata
   id="metadata16"><rdf:RDF><cc:Work
       rdf:about=""><dc:format>image/svg+xml</dc:format><dc:type
         rdf:resource="http://purl.org/dc/dcmitype/StillImage" /><dc:title></dc:title></cc:Work></rdf:RDF></metadata><defs
   id="defs14" /><sodipodi:namedview
   pagecolor="#ffffff"
   bordercolor="#666666"
   borderopacity="1"
   objecttolerance="10"
   gridtolerance="10"
   guidetolerance="10"
   inkscape:pageopacity="0"
   inkscape:pageshadow="2"
   inkscape:window-width="997"
   inkscape:window-height="638"
   id="namedview12"
   showgrid="false"
   fit-margin-top="0"
   fit-margin-left="0"
   fit-margin-right="0"
   fit-margin-bottom="0"
   inkscape:zoom="2.36"
   inkscape:cx="40.711678"
   inkscape:cy="32.328939"
   inkscape:window-x="0"
   inkscape:window-y="0"
   inkscape:window-maximized="0"
   inkscape:current-layer="svg2" />
<g
   id="Captions"
   transform="translate(-12.539234,-11.144068)">
</g>
<g
   id="Your_Icon"
   style="fill:#ffffff"
   transform="translate(-7.962963,-10)">
	<path
   clip-rule="evenodd"
   d="M 50,100 C 22.385,100 0,77.613 0,50 0,22.386 22.385,0 50,0 c 27.614,0 50,22.386 50,50 0,27.613 -22.386,50 -50,50 z m 0.435,-85.911 c -19.21,0 -36.345,17.135 -36.345,36.346 0,19.209 17.135,36.345 36.345,36.345 19.21,0 36.345,-17.135 36.345,-36.345 0,-19.21 -17.135,-36.346 -36.345,-36.346 z m -0.044,45.677 h -1.562 c -2.401,0 -5.35,-1.712 -5.35,-4.114 V 53.914 33.561 c 0,-2.402 1.946,-5.13 4.349,-5.13 h 2.52 c 2.4,0 4.731,2.371 4.731,4.771 v 15.626 h 14.845 c 2.4,0 5.125,1.902 5.125,4.304 v 2.52 c 0,2.402 -2.725,4.114 -5.125,4.114 H 50.391 z"
   id="path6"
   style="fill:#ffffff;fill-rule:evenodd"
   inkscape:connector-curvature="0" />
</g>
</svg>