<?xml version="1.0" encoding="UTF-8" standalone="no"?>
<svg
   xmlns:dc="http://purl.org/dc/elements/1.1/"
   xmlns:cc="http://creativecommons.org/ns#"
   xmlns:rdf="http://www.w3.org/1999/02/22-rdf-syntax-ns#"
   xmlns:svg="http://www.w3.org/2000/svg"
   xmlns="http://www.w3.org/2000/svg"
   xmlns:sodipodi="http://sodipodi.sourceforge.net/DTD/sodipodi-0.dtd"
   xmlns:inkscape="http://www.inkscape.org/namespaces/inkscape"
   viewBox="0 0 50 49.471142"
   version="1.1"
   xml:space="preserve"
   x="0px"
   y="0px"
   id="svg2"
   inkscape:version="0.91 r13725"
   sodipodi:docname="navbar.scroll.hor.svg"
   width="50"
   height="49.471142"><metadata
     id="metadata16"><rdf:RDF><cc:Work
         rdf:about=""><dc:format>image/svg+xml</dc:format><dc:type
           rdf:resource="http://purl.org/dc/dcmitype/StillImage" /><dc:title></dc:title></cc:Work></rdf:RDF></metadata><defs
     id="defs14" /><sodipodi:namedview
     pagecolor="#ffffff"
     bordercolor="#666666"
     borderopacity="1"
     objecttolerance="10"
     gridtolerance="10"
     guidetolerance="10"
     inkscape:pageopacity="0"
     inkscape:pageshadow="2"
     inkscape:window-width="1024"
     inkscape:window-height="1217"
     id="namedview12"
     showgrid="false"
     fit-margin-top="0"
     fit-margin-left="0"
     fit-margin-right="0"
     fit-margin-bottom="0"
     inkscape:zoom="1.888"
     inkscape:cx="45.422528"
     inkscape:cy="32.884172"
     inkscape:window-x="-8"
     inkscape:window-y="-8"
     inkscape:window-maximized="1"
     inkscape:current-layer="svg2" /><g
     id="g4"
     transform="matrix(0,0.54775492,-0.54775492,0,52.391991,-2.6521745)"><path
       d="M 8.6447,45 C 6.0194,45 4.8419,47.3743 4.8419,49.9996 4.8419,52.6249 6.0194,55 8.6447,55 l 82.7106,0 c 2.6253,0 3.8028,-2.3751 3.8028,-5.0004 C 95.1581,47.3743 93.9806,45 91.3553,45 L 8.6447,45 Z M 5.7926,33 94.2074,33 c 0,-2.3223 -0.67,-4.819 -3.3155,-6.2181 L 50.8867,4.3669 10.0611,26.894 C 7.4832,28.2337 5.7926,29.6892 5.7926,33 Z M 93.9927,67 5.7926,67 c 0,2.3235 1.6191,4.8218 4.2585,6.2216 L 49.008,95.6486 89.7342,73.1087 C 92.306,71.7682 93.9927,70.3125 93.9927,67 Z"
       id="path6"
       inkscape:connector-curvature="0"
       style="fill:#000000" /></g></svg>