<?xml version="1.0" encoding="utf-8"?>
<!-- Generator: Adobe Illustrator 16.0.0, SVG Export Plug-In . SVG Version: 6.00 Build 0)  -->
<!DOCTYPE svg PUBLIC "-//W3C//DTD SVG 1.1//EN" "http://www.w3.org/Graphics/SVG/1.1/DTD/svg11.dtd">
<svg version="1.1" id="Layer_1" xmlns="http://www.w3.org/2000/svg" xmlns:xlink="http://www.w3.org/1999/xlink" x="0px" y="0px"
	 width="100px" height="85.634px" viewBox="0 0 100 85.634" enable-background="new 0 0 100 85.634" xml:space="preserve">
<path fill="#010101" d="M73.271,65.844c5.517-1.118,8.547-5.664,8.547-12.416V6.264c0-5.108-3.237-6.689-8.588-6.169l-14.14,2.509
	c0,0-7.575,1.515-7.575,9.091c0,4.545,0,59.091,0,59.091l6.061-1.376v16.226l6.061-5.757l6.061,5.757V66.657L73.271,65.844z"/>
<path fill="#010101" d="M77.272,66.241c15.151-3.03,13.637-16.666,13.637-16.666V7.214c0-1.987-1.57-2.791-2.995-2.791
	c-1.496,0-3.065,0.804-3.065,2.791V54.12C84.849,64.726,77.272,66.241,77.272,66.241z"/>
<path fill="#010101" d="M22.727,66.241c0,0-7.576-1.515-7.576-12.121V7.214c0-1.987-1.57-2.791-3.065-2.791
	c-1.423,0-2.996,0.804-2.996,2.791v42.361C9.091,49.575,7.576,63.21,22.727,66.241z"/>
<path fill="#010101" d="M17.384,67.781C9.091,66.241,6.061,57.89,6.061,50.289V16.239c0-1.983-1.57-3.03-3.03-3.03
	c-1.515,0-3.03,1.047-3.03,3.03v35.844c0,3.185,0,18.505,16.909,22.225L50,77.735l4.546-0.472V73.42L50,74.333L17.384,67.781z"/>
<path fill="#010101" d="M26.728,65.844l21.757,4.942c0,0,0-54.546,0-59.091c0-7.576-7.576-9.091-7.576-9.091l-14.14-2.51
	c-5.35-0.521-8.588,1.06-8.588,6.169v47.165C18.182,60.18,21.212,64.726,26.728,65.844z"/>
<path fill="#010101" d="M96.97,13.209c-1.46,0-3.03,1.047-3.03,3.03v34.046c0,7.605-3.03,15.954-11.322,17.492l-9.89,1.989v5.613
	l10.363-1.072C100,70.588,100,55.268,100,52.083V16.239C100,14.257,98.484,13.209,96.97,13.209z"/>
</svg>
