<svg xmlns="http://www.w3.org/2000/svg" xmlns:xlink="http://www.w3.org/1999/xlink" version="1.1" x="0px" y="0px" viewBox="0 0 100 125" enable-background="new 0 0 100 100" xml:space="preserve"><path d="M88.9,9.2H11.1c-3.3,0-6,2.7-6,6v45c0,3.3,2.7,6,6,6l41.4,0l27.2,24c0.4,0.3,0.8,0.5,1.3,0.5c0.3,0,0.7-0.1,1-0.3  c0.7-0.4,1.1-1.3,1-2.1l-3.9-22.2h9.8c3.3,0,6-2.7,6-6v-45C94.9,11.9,92.2,9.2,88.9,9.2z M90.9,60.3c0,1.1-0.9,2-2,2H76.7  c-0.6,0-1.2,0.3-1.5,0.7c-0.4,0.5-0.5,1.1-0.4,1.6L78,83.5L55.1,63.3c-0.7-0.6-1.7-1-2.6-1H11.1c-1.1,0-2-0.9-2-2v-45  c0-1.1,0.9-2,2-2h77.7c1.1,0,2,0.9,2,2V60.3z M15.5,27c0-1.1,0.9-2,2-2h65.4c1.1,0,2,0.9,2,2s-0.9,2-2,2H17.5  C16.4,29,15.5,28.1,15.5,27z M15.5,37c0-1.1,0.9-2,2-2h65.4c1.1,0,2,0.9,2,2s-0.9,2-2,2H17.5C16.4,39,15.5,38.1,15.5,37z M15.5,47  c0-1.1,0.9-2,2-2h65.4c1.1,0,2,0.9,2,2s-0.9,2-2,2H17.5C16.4,49,15.5,48.1,15.5,47z"/><text x="0" y="115" fill="#000000" font-size="5px" font-weight="bold" font-family="'Helvetica Neue', Helvetica, Arial-Unicode, Arial, Sans-serif">Created by natalieworth</text><text x="0" y="120" fill="#000000" font-size="5px" font-weight="bold" font-family="'Helvetica Neue', Helvetica, Arial-Unicode, Arial, Sans-serif">from the Noun Project</text></svg>