<?xml version="1.0" encoding="utf-8"?>
<!-- Generator: Adobe Illustrator 16.0.0, SVG Export Plug-In . SVG Version: 6.00 Build 0)  -->
<!DOCTYPE svg PUBLIC "-//W3C//DTD SVG 1.1//EN" "http://www.w3.org/Graphics/SVG/1.1/DTD/svg11.dtd">
<svg version="1.1" id="Layer_1" xmlns="http://www.w3.org/2000/svg" xmlns:xlink="http://www.w3.org/1999/xlink" x="0px" y="0px"
	 width="70.03px" height="100px" viewBox="0 0 70.03 100" enable-background="new 0 0 70.03 100" xml:space="preserve">
<g id="Your_Icon">
	<path fill="#010101" d="M24.894,38.337l-2.307,3.934C16.489,38.102,12.49,31.094,12.49,23.152C12.493,10.364,22.856,0,35.642,0
		c12.792,0,23.155,10.364,23.155,23.152c0,8.06-4.117,15.154-10.363,19.3c-0.299-0.19-0.546-0.345-0.729-0.46l-1.982-3.198
		c1.114-0.718,2.146-1.552,3.08-2.485c3.373-3.373,5.447-8.011,5.45-13.157c-0.003-5.146-2.077-9.78-5.45-13.156
		c-3.374-3.371-8.011-5.448-13.157-5.448c-5.146,0-9.78,2.077-13.156,5.448c-3.37,3.376-5.448,8.013-5.448,13.156
		c0,5.146,2.078,9.784,5.448,13.157C23.233,37.05,24.038,37.729,24.894,38.337z M34.812,11.024c-9.094,0-9.324,7.126-9.324,15.915
		c0,3.905,0.825,7.476,2.189,10.246c1.712,3.465,0.465-5.649,7.134-5.649c6.364,0,5.706,8.864,7.41,5.06
		c1.198-2.678,1.913-6.025,1.913-9.657C44.135,18.15,44.285,11.024,34.812,11.024z M61.639,55.235
		c-3.737-4.853-15.257-11.924-15.257-11.924l-3.028-4.89c-0.879,1.669-1.956,3.074-3.154,4.109
		c-1.627,1.402-3.488,2.143-5.385,2.143c-3.184,0-6.131-2.042-8.214-5.648l-2.75,4.689c0,0-9.703,7.881-16.17,14.148S0,100,0,100
		h70.03C70.03,100,65.38,60.085,61.639,55.235z M23.063,86.51l0.152-9.019l0.911-8.867l0.985,1.138l-0.152,4.772l-0.227,3.563
		c0,0,1.629-2.388,4.358-3.028c0.885-0.213,6.062,0.149,6.062,0.149l-1.175,1.364c0,0-3.167-0.333-4.284-0.115
		c-3.672,0.722-2.994,3.448-2.994,3.448h0.304c0,0,0.23-1.514,1.138-2.272c0.411-0.345,1.592-0.532,1.592-0.532
		s0.075,2.198,0.149,2.578c0.078,0.379,0.833,3.258,0.833,3.258l0.758-0.454l0.379-4.772l1.744-0.684c0,0-0.457,7.275-1.135,9.094
		c-0.684,1.821-5.005,5.459-5.005,5.459l-7.881,7.502c0,0,0.379-6.364,0.379-8.338c0-1.968,1.212-3.939,1.212-3.939L23.063,86.51z
		 M27.138,73.911c0.115-0.229,2.235-1.856,2.235-1.856l2.767-1.669l-0.112,1.669l-2.804,1.589v0.834c0,0-0.684,0.154-1.138,0.345
		c-0.454,0.187-1.212,0.755-1.212,0.755S27.026,74.138,27.138,73.911z M28.181,71.598c0,0,0.985-1.287,1.29-1.514
		c0.302-0.229,1.477-1.744,1.477-1.744l-0.041,1.707l-1.212,1.209l-1.741,1.101L28.181,71.598z M40.797,65.214l16.903-0.075
		l1.589,25.313l-1.816,0.228c0,0-1.287-1.061-2.046-1.518c-0.758-0.454-6.898-0.982-6.898-0.982l-2.5,2.12l-5.079-0.302
		L40.797,65.214z M33.447,39.016l0.81-1.414l1.109-0.049l1.012,1.514l2.678-1.919l-4.241-3.879l-3.982,4.132L33.447,39.016z"/>
</g>
</svg>
