<?xml version="1.0" encoding="UTF-8" standalone="no"?>
<!-- Generator: Adobe Illustrator 16.0.0, SVG Export Plug-In . SVG Version: 6.00 Build 0)  -->

<svg
   xmlns:dc="http://purl.org/dc/elements/1.1/"
   xmlns:cc="http://creativecommons.org/ns#"
   xmlns:rdf="http://www.w3.org/1999/02/22-rdf-syntax-ns#"
   xmlns:svg="http://www.w3.org/2000/svg"
   xmlns="http://www.w3.org/2000/svg"
   xmlns:sodipodi="http://sodipodi.sourceforge.net/DTD/sodipodi-0.dtd"
   xmlns:inkscape="http://www.inkscape.org/namespaces/inkscape"
   version="1.1"
   id="Layer_1"
   x="0px"
   y="0px"
   width="70.029999"
   height="100"
   viewBox="0 0 70.03 100"
   enable-background="new 0 0 70.03 100"
   xml:space="preserve"
   inkscape:version="0.91 r13725"
   sodipodi:docname="saint.svg"><metadata
     id="metadata10"><rdf:RDF><cc:Work
         rdf:about=""><dc:format>image/svg+xml</dc:format><dc:type
           rdf:resource="http://purl.org/dc/dcmitype/StillImage" /><dc:title></dc:title></cc:Work></rdf:RDF></metadata><defs
     id="defs8" /><sodipodi:namedview
     pagecolor="#ffffff"
     bordercolor="#666666"
     borderopacity="1"
     objecttolerance="10"
     gridtolerance="10"
     guidetolerance="10"
     inkscape:pageopacity="0"
     inkscape:pageshadow="2"
     inkscape:window-width="1024"
     inkscape:window-height="1217"
     id="namedview6"
     showgrid="false"
     fit-margin-top="0"
     fit-margin-left="0"
     fit-margin-right="0"
     fit-margin-bottom="0"
     inkscape:zoom="2.36"
     inkscape:cx="35.014999"
     inkscape:cy="50"
     inkscape:window-x="-8"
     inkscape:window-y="-8"
     inkscape:window-maximized="1"
     inkscape:current-layer="Layer_1" /><g
     id="Your_Icon"><path
       d="m 24.894,38.337 -2.307,3.934 C 16.489,38.102 12.49,31.094 12.49,23.152 12.493,10.364 22.856,0 35.642,0 c 12.792,0 23.155,10.364 23.155,23.152 0,8.06 -4.117,15.154 -10.363,19.3 -0.299,-0.19 -0.546,-0.345 -0.729,-0.46 l -1.982,-3.198 c 1.114,-0.718 2.146,-1.552 3.08,-2.485 3.373,-3.373 5.447,-8.011 5.45,-13.157 C 54.25,18.006 52.176,13.372 48.803,9.996 45.429,6.625 40.792,4.548 35.646,4.548 c -5.146,0 -9.78,2.077 -13.156,5.448 -3.37,3.376 -5.448,8.013 -5.448,13.156 0,5.146 2.078,9.784 5.448,13.157 0.743,0.741 1.548,1.42 2.404,2.028 z m 9.918,-27.313 c -9.094,0 -9.324,7.126 -9.324,15.915 0,3.905 0.825,7.476 2.189,10.246 1.712,3.465 0.465,-5.649 7.134,-5.649 6.364,0 5.706,8.864 7.41,5.06 1.198,-2.678 1.913,-6.025 1.913,-9.657 10e-4,-8.789 0.151,-15.915 -9.322,-15.915 z M 61.639,55.235 C 57.902,50.382 46.382,43.311 46.382,43.311 l -3.028,-4.89 c -0.879,1.669 -1.956,3.074 -3.154,4.109 -1.627,1.402 -3.488,2.143 -5.385,2.143 -3.184,0 -6.131,-2.042 -8.214,-5.648 l -2.75,4.689 c 0,0 -9.703,7.881 -16.17,14.148 C 1.214,64.129 0,100 0,100 l 70.03,0 c 0,0 -4.65,-39.915 -8.391,-44.765 z m -38.576,31.275 0.152,-9.019 0.911,-8.867 0.985,1.138 -0.152,4.772 -0.227,3.563 c 0,0 1.629,-2.388 4.358,-3.028 0.885,-0.213 6.062,0.149 6.062,0.149 l -1.175,1.364 c 0,0 -3.167,-0.333 -4.284,-0.115 -3.672,0.722 -2.994,3.448 -2.994,3.448 l 0.304,0 c 0,0 0.23,-1.514 1.138,-2.272 0.411,-0.345 1.592,-0.532 1.592,-0.532 0,0 0.075,2.198 0.149,2.578 0.078,0.379 0.833,3.258 0.833,3.258 l 0.758,-0.454 0.379,-4.772 1.744,-0.684 c 0,0 -0.457,7.275 -1.135,9.094 -0.684,1.821 -5.005,5.459 -5.005,5.459 l -7.881,7.502 c 0,0 0.379,-6.364 0.379,-8.338 0,-1.968 1.212,-3.939 1.212,-3.939 l 1.897,-0.305 z m 4.075,-12.599 c 0.115,-0.229 2.235,-1.856 2.235,-1.856 l 2.767,-1.669 -0.112,1.669 -2.804,1.589 0,0.834 c 0,0 -0.684,0.154 -1.138,0.345 -0.454,0.187 -1.212,0.755 -1.212,0.755 0,0 0.152,-1.44 0.264,-1.667 z m 1.043,-2.313 c 0,0 0.985,-1.287 1.29,-1.514 0.302,-0.229 1.477,-1.744 1.477,-1.744 l -0.041,1.707 -1.212,1.209 -1.741,1.101 0.227,-0.759 z M 40.797,65.214 57.7,65.139 59.289,90.452 57.473,90.68 c 0,0 -1.287,-1.061 -2.046,-1.518 -0.758,-0.454 -6.898,-0.982 -6.898,-0.982 l -2.5,2.12 -5.079,-0.302 -0.153,-24.784 z m -7.35,-26.198 0.81,-1.414 1.109,-0.049 1.012,1.514 2.678,-1.919 -4.241,-3.879 -3.982,4.132 2.614,1.615 z"
       id="path4"
       inkscape:connector-curvature="0"
       style="fill:#010101" /></g></svg>