<svg xmlns="http://www.w3.org/2000/svg" xmlns:xlink="http://www.w3.org/1999/xlink" viewBox="0 0 100 125" style="background-color:#ffffff00;" version="1.1" xml:space="preserve" x="0px" y="0px"><g><path d="M 8.6447 45 C 6.0194 45 4.8419 47.3743 4.8419 49.9996 C 4.8419 52.6249 6.0194 55 8.6447 55 L 91.3553 55 C 93.9806 55 95.1581 52.6249 95.1581 49.9996 C 95.1581 47.3743 93.9806 45 91.3553 45 L 8.6447 45 ZM 5.7926 33 L 94.2074 33 C 94.2074 30.6777 93.5374 28.181 90.8919 26.7819 L 50.8867 4.3669 L 10.0611 26.894 C 7.4832 28.2337 5.7926 29.6892 5.7926 33 ZM 93.9927 67 L 5.7926 67 C 5.7926 69.3235 7.4117 71.8218 10.0511 73.2216 L 49.008 95.6486 L 89.7342 73.1087 C 92.306 71.7682 93.9927 70.3125 93.9927 67 Z" fill="#000000"/></g><text x="0" y="115" fill="#000000" font-size="5px" font-weight="bold" font-family="'Helvetica Neue', Helvetica, Arial-Unicode, Arial, Sans-serif">Created by Roberto Chiaveri</text><text x="0" y="120" fill="#000000" font-size="5px" font-weight="bold" font-family="'Helvetica Neue', Helvetica, Arial-Unicode, Arial, Sans-serif">from the Noun Project</text></svg>