<svg xmlns="http://www.w3.org/2000/svg" xmlns:xlink="http://www.w3.org/1999/xlink" version="1.1" id="Layer_1" x="0px" y="0px" width="96px" height="96px" viewBox="0 0 96 96" enable-background="new 0 0 96 96" xml:space="preserve">
<path d="M91.939,58.516c-0.26-1.072-1.359-1.735-2.424-1.451l-8,2c-1.072,0.264-1.724,1.352-1.451,2.42C80.292,62.4,81.104,63,82,63  c0.156,0,0.32-0.016,0.484-0.064l8-2C91.561,60.672,92.212,59.584,91.939,58.516z"/>
<path d="M70,47c0.516,0,1.023-0.196,1.416-0.584l8-8c0.775-0.776,0.775-2.048,0-2.828c-0.775-0.776-2.053-0.776-2.828,0l-8,8  c-0.775,0.78-0.775,2.052,0,2.828C68.977,46.804,69.492,47,70,47z"/>
<path d="M48,39c1.104,0,2-0.9,2-2V25c0-1.1-0.896-2-2-2c-1.104,0-2,0.9-2,2v12C46,38.1,46.9,39,48,39z"/>
<path d="M14,63c0.896,0,1.712-0.6,1.936-1.516c0.268-1.072-0.384-2.156-1.456-2.42l-8-2c-1.072-0.272-2.16,0.388-2.424,1.451  c-0.268,1.072,0.384,2.156,1.456,2.42l8,2C13.676,62.984,13.84,63,14,63z"/>
<path d="M24.584,46.416C24.98,46.808,25.492,47,26,47s1.024-0.196,1.416-0.584c0.78-0.776,0.78-2.048,0-2.828l-8-8  c-0.78-0.776-2.048-0.776-2.828,0c-0.78,0.78-0.78,2.052,0,2.828L24.584,46.416z"/>
<path d="M86,69H75.904c-1.032-14.508-13.137-26-27.9-26s-26.864,11.492-27.9,26H10c-1.104,0-2,0.9-2,2s0.896,2,2,2h76  c1.104,0,2-0.9,2-2S87.104,69,86,69z"/>
</svg>