<?xml version="1.0" encoding="UTF-8" standalone="no"?>
<svg
   xmlns:dc="http://purl.org/dc/elements/1.1/"
   xmlns:cc="http://creativecommons.org/ns#"
   xmlns:rdf="http://www.w3.org/1999/02/22-rdf-syntax-ns#"
   xmlns:svg="http://www.w3.org/2000/svg"
   xmlns="http://www.w3.org/2000/svg"
   xmlns:sodipodi="http://sodipodi.sourceforge.net/DTD/sodipodi-0.dtd"
   xmlns:inkscape="http://www.inkscape.org/namespaces/inkscape"
   version="1.1"
   id="Layer_1"
   x="0px"
   y="0px"
   width="100"
   height="56.814693"
   viewBox="0 0 100 56.814693"
   enable-background="new 0 0 96 96"
   xml:space="preserve"
   inkscape:version="0.91 r13725"
   sodipodi:docname="sunrise.svg"><metadata
     id="metadata19"><rdf:RDF><cc:Work
         rdf:about=""><dc:format>image/svg+xml</dc:format><dc:type
           rdf:resource="http://purl.org/dc/dcmitype/StillImage" /><dc:title></dc:title></cc:Work></rdf:RDF></metadata><defs
     id="defs17" /><sodipodi:namedview
     pagecolor="#ffffff"
     bordercolor="#666666"
     borderopacity="1"
     objecttolerance="10"
     gridtolerance="10"
     guidetolerance="10"
     inkscape:pageopacity="0"
     inkscape:pageshadow="2"
     inkscape:window-width="1024"
     inkscape:window-height="1217"
     id="namedview15"
     showgrid="false"
     fit-margin-top="0"
     fit-margin-left="0"
     fit-margin-right="0"
     fit-margin-bottom="0"
     inkscape:zoom="2.4583333"
     inkscape:cx="44.004197"
     inkscape:cy="25.000003"
     inkscape:window-x="-8"
     inkscape:window-y="-8"
     inkscape:window-maximized="1"
     inkscape:current-layer="Layer_1" /><g
     id="g4147"
     transform="matrix(1.1362939,0,0,1.1362939,-4.5404067,-26.13476)"><path
       id="path3"
       d="m 91.939,58.516 c -0.26,-1.072 -1.359,-1.735 -2.424,-1.451 l -8,2 c -1.072,0.264 -1.724,1.352 -1.451,2.42 C 80.292,62.4 81.104,63 82,63 c 0.156,0 0.32,-0.016 0.484,-0.064 l 8,-2 c 1.077,-0.264 1.728,-1.352 1.455,-2.42 z"
       inkscape:connector-curvature="0" /><path
       id="path5"
       d="m 70,47 c 0.516,0 1.023,-0.196 1.416,-0.584 l 8,-8 c 0.775,-0.776 0.775,-2.048 0,-2.828 -0.775,-0.776 -2.053,-0.776 -2.828,0 l -8,8 c -0.775,0.78 -0.775,2.052 0,2.828 C 68.977,46.804 69.492,47 70,47 Z"
       inkscape:connector-curvature="0" /><path
       id="path7"
       d="m 48,39 c 1.104,0 2,-0.9 2,-2 l 0,-12 c 0,-1.1 -0.896,-2 -2,-2 -1.104,0 -2,0.9 -2,2 l 0,12 c 0,1.1 0.9,2 2,2 z"
       inkscape:connector-curvature="0" /><path
       id="path9"
       d="m 14,63 c 0.896,0 1.712,-0.6 1.936,-1.516 0.268,-1.072 -0.384,-2.156 -1.456,-2.42 l -8,-2 c -1.072,-0.272 -2.16,0.388 -2.424,1.451 -0.268,1.072 0.384,2.156 1.456,2.42 l 8,2 C 13.676,62.984 13.84,63 14,63 Z"
       inkscape:connector-curvature="0" /><path
       id="path11"
       d="M 24.584,46.416 C 24.98,46.808 25.492,47 26,47 c 0.508,0 1.024,-0.196 1.416,-0.584 0.78,-0.776 0.78,-2.048 0,-2.828 l -8,-8 c -0.78,-0.776 -2.048,-0.776 -2.828,0 -0.78,0.78 -0.78,2.052 0,2.828 l 7.996,8 z"
       inkscape:connector-curvature="0" /><path
       id="path13"
       d="M 86,69 75.904,69 C 74.872,54.492 62.767,43 48.004,43 33.241,43 21.14,54.492 20.104,69 L 10,69 c -1.104,0 -2,0.9 -2,2 0,1.1 0.896,2 2,2 l 76,0 c 1.104,0 2,-0.9 2,-2 0,-1.1 -0.896,-2 -2,-2 z"
       inkscape:connector-curvature="0" /></g></svg>