<?xml version="1.0" encoding="UTF-8" standalone="no"?>
<svg
   xmlns:dc="http://purl.org/dc/elements/1.1/"
   xmlns:cc="http://creativecommons.org/ns#"
   xmlns:rdf="http://www.w3.org/1999/02/22-rdf-syntax-ns#"
   xmlns:svg="http://www.w3.org/2000/svg"
   xmlns="http://www.w3.org/2000/svg"
   xmlns:sodipodi="http://sodipodi.sourceforge.net/DTD/sodipodi-0.dtd"
   xmlns:inkscape="http://www.inkscape.org/namespaces/inkscape"
   version="1.1"
   x="0px"
   y="0px"
   viewBox="0 0 100 90.75724"
   enable-background="new 0 0 100 100"
   xml:space="preserve"
   id="svg2"
   inkscape:version="0.91 r13725"
   sodipodi:docname="tabbar.quote.svg"
   width="100"
   height="90.75724"><metadata
     id="metadata14"><rdf:RDF><cc:Work
         rdf:about=""><dc:format>image/svg+xml</dc:format><dc:type
           rdf:resource="http://purl.org/dc/dcmitype/StillImage" /><dc:title></dc:title></cc:Work></rdf:RDF></metadata><defs
     id="defs12" /><sodipodi:namedview
     pagecolor="#ffffff"
     bordercolor="#666666"
     borderopacity="1"
     objecttolerance="10"
     gridtolerance="10"
     guidetolerance="10"
     inkscape:pageopacity="0"
     inkscape:pageshadow="2"
     inkscape:window-width="1024"
     inkscape:window-height="1217"
     id="namedview10"
     showgrid="false"
     fit-margin-top="0"
     fit-margin-left="0"
     fit-margin-right="0"
     fit-margin-bottom="0"
     inkscape:zoom="1.888"
     inkscape:cx="44.9"
     inkscape:cy="28.199995"
     inkscape:window-x="-8"
     inkscape:window-y="-8"
     inkscape:window-maximized="1"
     inkscape:current-layer="svg2" /><path
     d="M 93.318486,0 6.681514,0 C 3.0066815,0 0,3.0066815 0,6.6815145 L 0,56.792873 c 0,3.674833 3.0066815,6.681514 6.681514,6.681514 l 46.10245,0 30.289533,26.726058 c 0.445434,0.334076 0.890868,0.556793 1.447661,0.556793 0.334076,0 0.77951,-0.111359 1.113586,-0.334076 0.77951,-0.445434 1.224944,-1.447661 1.113586,-2.33853 l -4.342985,-24.721603 10.913141,0 C 96.99332,63.363029 100,60.356347 100,56.681514 L 100,6.5701559 C 100,3.0066815 96.99332,0 93.318486,0 Z m 2.227174,56.904231 c 0,1.224945 -1.00223,2.227172 -2.227174,2.227172 l -13.585747,0 c -0.668151,0 -1.336302,0.334076 -1.670378,0.77951 -0.445434,0.556793 -0.556793,1.224944 -0.445434,1.781737 L 81.180401,82.739421 55.679287,60.244989 c -0.77951,-0.668152 -1.893095,-1.113586 -2.895323,-1.113586 l -46.10245,0 c -1.224944,0 -2.227171,-1.002227 -2.227171,-2.227172 l 0,-50.111358 c 0,-1.2249443 1.002227,-2.2271714 2.227171,-2.2271714 l 86.525613,0 c 1.224944,0 2.227173,1.0022271 2.227173,2.2271714 l 0,50.111358 z M 11.581292,19.821826 c 0,-1.224944 1.002227,-2.227172 2.227171,-2.227172 l 72.828508,0 c 1.224944,0 2.227172,1.002228 2.227172,2.227172 0,1.224944 -1.002228,2.227171 -2.227172,2.227171 l -72.828508,0 c -1.224944,0 -2.227171,-1.002227 -2.227171,-2.227171 z m 0,11.135857 c 0,-1.224944 1.002227,-2.227171 2.227171,-2.227171 l 72.828508,0 c 1.224944,0 2.227172,1.002227 2.227172,2.227171 0,1.224945 -1.002228,2.227172 -2.227172,2.227172 l -72.828508,0 c -1.224944,0 -2.227171,-1.002227 -2.227171,-2.227172 z m 0,11.135858 c 0,-1.224944 1.002227,-2.227172 2.227171,-2.227172 l 72.828508,0 c 1.224944,0 2.227172,1.002228 2.227172,2.227172 0,1.224944 -1.002228,2.227171 -2.227172,2.227171 l -72.828508,0 c -1.224944,0 -2.227171,-1.002227 -2.227171,-2.227171 z"
     id="path4"
     inkscape:connector-curvature="0" /></svg>