<?xml version="1.0" encoding="UTF-8" standalone="no"?>
<svg
   xmlns:dc="http://purl.org/dc/elements/1.1/"
   xmlns:cc="http://creativecommons.org/ns#"
   xmlns:rdf="http://www.w3.org/1999/02/22-rdf-syntax-ns#"
   xmlns:svg="http://www.w3.org/2000/svg"
   xmlns="http://www.w3.org/2000/svg"
   xmlns:sodipodi="http://sodipodi.sourceforge.net/DTD/sodipodi-0.dtd"
   xmlns:inkscape="http://www.inkscape.org/namespaces/inkscape"
   version="1.1"
   x="0px"
   y="0px"
   viewBox="0 0 100 85.290024"
   enable-background="new 0 0 100 100"
   xml:space="preserve"
   id="svg2"
   inkscape:version="0.91 r13725"
   sodipodi:docname="tabbar.decade.svg"
   width="100"
   height="85.290024"><metadata
     id="metadata14"><rdf:RDF><cc:Work
         rdf:about=""><dc:format>image/svg+xml</dc:format><dc:type
           rdf:resource="http://purl.org/dc/dcmitype/StillImage" /><dc:title></dc:title></cc:Work></rdf:RDF></metadata><defs
     id="defs12" /><sodipodi:namedview
     pagecolor="#ffffff"
     bordercolor="#666666"
     borderopacity="1"
     objecttolerance="10"
     gridtolerance="10"
     guidetolerance="10"
     inkscape:pageopacity="0"
     inkscape:pageshadow="2"
     inkscape:window-width="1024"
     inkscape:window-height="1217"
     id="namedview10"
     showgrid="false"
     fit-margin-top="0"
     fit-margin-left="0"
     fit-margin-right="0"
     fit-margin-bottom="0"
     inkscape:zoom="1.888"
     inkscape:cx="42.5"
     inkscape:cy="23.748"
     inkscape:window-x="-8"
     inkscape:window-y="-8"
     inkscape:window-maximized="1"
     inkscape:current-layer="svg2" /><path
     d="m 65.689412,52.648846 c -0.358824,0 -0.712941,-0.02588 -1.070588,-0.03177 C 100,35.948846 96.20706,0.34178682 96.20706,0.34178682 c 0,0 -58.004707,-6.73764712 -64.00706,39.61647018 C 29.389412,35.394728 23.389412,23.551198 13.496471,21.854728 6.484706,20.653551 2.1788235,25.00061 0,31.526493 c 5.372941,1.104705 8.934118,4.637647 9.474118,11.743529 1.652941,21.751765 20.018823,42.02 44.551764,42.02 l 1.42,0 C 80.048235,85.290022 100,65.34061 100,40.734728 l 0,-2.122353 c -8.835294,8.68 -20.947059,14.036471 -34.310588,14.036471 z"
     id="path4"
     inkscape:connector-curvature="0" /></svg>